<svg height="512pt" viewBox="-3 0 512 512" width="512pt" xmlns="http://www.w3.org/2000/svg"><path d="m459.191406 206.203125c0-113.703125-92.503906-206.203125-206.210937-206.203125-113.703125 0-206.207031 92.5-206.207031 206.203125 0 113.699219 92.503906 206.199219 206.207031 206.199219 113.707031 0 206.210937-92.5 206.210937-206.199219zm-242.96875 87.960937-70.402344-70.402343 21.339844-21.335938 49.0625 49.0625 122.582032-122.578125 21.339843 21.335938zm0 0"/><path d="m62.421875 345.875-62.421875 91.042969 92.289062-17.210938 17.210938 92.292969 58.453125-85.253906c-42.4375-16.417969-78.984375-44.746094-105.53125-80.871094zm0 0"/><path d="m443.542969 345.875c-26.546875 36.125-63.09375 64.453125-105.53125 80.871094l58.453125 85.253906 17.210937-92.292969 92.289063 17.210938zm0 0"/></svg>